# xmcd CD database file
#
# Track frame offsets:
#	150
#	24812
#	46492
#	70380
#	87262
#	108110
#	124287
#	143355
#	165862
#
# Disc length: 2445 seconds
#
# Revision: 0
# Processed by: cddbd v1.5.1PL0 Copyright (c) Steve Scherf et al.
# Submitted via: CDex 1.51
#
DISCID=66098b09
DTITLE=Johnny Ventura - Ayer
DYEAR=1989
DGENRE=Merengue
TTITLE0=Mosaico (Cabo e vela, mami, me tiene enredao, papelito blanco)
TTITLE1=Mosaico (Maria tomasa, lo que te gusta, la verdad, consigueme eso)
TTITLE2=Mosaico (Tiene sabor, A burujon, Dominancha, Pinguino)
TTITLE3=Mosaico (El sueño, El difunto, La suegra)
TTITLE4=Quiero gozar
TTITLE5=Imagino
TTITLE6=Marina
TTITLE7=De la loma al mar
TTITLE8=Ya no te quiero
EXTD=YEAR: 1989
EXTT0=
EXTT1=
EXTT2=
EXTT3=
EXTT4=
EXTT5=
EXTT6=
EXTT7=
EXTT8=
PLAYORDER=
